<svg xmlns="http://www.w3.org/2000/svg" xmlns:xlink="http://www.w3.org/1999/xlink" fill="none" version="1.1" width="32" height="32" viewBox="0 0 32 32"><g><path d="M14.0298,9.80598C12.3584,5.23379,8.51569,1.70727,3.75,0.474765C2.55174,0.164869,1.29512,0,0,0L0,32L14.9333,32L14.9333,14.9333C14.9333,13.1319,14.6144,11.405,14.0298,9.80598ZM17.9702,9.80597C17.3856,11.405,17.0667,13.1319,17.0667,14.9333L17.0667,32C17.6129,32,18.1523,31.9707,18.6833,31.9135C19.4114,31.8351,20.1238,31.7044,20.8167,31.5252C27.2491,29.8617,32,24.019,32,17.0667L32,0C30.7049,0,29.4483,0.164869,28.25,0.474765C23.4843,1.70727,19.6416,5.23378,17.9702,9.80597ZM11.1833,28.25L11.1833,14.9333Q11.1833,13.7861,10.9561,12.6755Q10.7352,11.596,10.306,10.5814Q9.88415,9.58398,9.27562,8.68324Q8.67188,7.7896,7.90781,7.02552Q7.14374,6.26145,6.25009,5.65771Q5.34935,5.04919,4.35191,4.6273Q4.05375,4.50119,3.75,4.39307L3.75,28.25L11.1833,28.25ZM28.25,4.39307Q27.9462,4.5012,27.6481,4.6273Q26.6507,5.04918,25.7499,5.65772Q24.8563,6.26145,24.0922,7.02552Q23.3281,7.7896,22.7244,8.68324Q22.1159,9.58399,21.694,10.5814Q21.2648,11.596,21.0439,12.6755Q20.8167,13.7861,20.8167,14.9333L20.8167,27.6069Q21.1204,27.4988,21.4186,27.3727Q22.416,26.9508,23.3168,26.3423Q24.2104,25.7385,24.9745,24.9745Q25.7385,24.2104,26.3423,23.3168Q26.9508,22.416,27.3727,21.4186Q27.8018,20.404,28.0227,19.3245Q28.25,18.2139,28.25,17.0667L28.25,4.39307Z" fill-rule="evenodd" fill="#2DD4BF" fill-opacity="1"/></g></svg>